<?xml version="1.0" encoding="utf-8"?>
<!-- Svg Vector Icons : http://www.onlinewebfonts.com/icon -->
<!DOCTYPE svg PUBLIC "-//W3C//DTD SVG 1.1//EN" "http://www.w3.org/Graphics/SVG/1.1/DTD/svg11.dtd">
<svg version="1.1" xmlns="http://www.w3.org/2000/svg" xmlns:xlink="http://www.w3.org/1999/xlink" x="0px" y="0px" viewBox="0 0 1000 1000" enable-background="new 0 0 1000 1000" xml:space="preserve">
<metadata> Svg Vector Icons : http://www.onlinewebfonts.com/icon </metadata>
<g><path d="M245,566.5L185.5,626c-16.5-40.4-24.7-82.5-24.7-126v-75.4c0-10.2,3.7-19,11.2-26.5c7.5-7.5,16.3-11.2,26.5-11.2c10.2,0,19,3.7,26.5,11.2c7.5,7.5,11.2,16.3,11.2,26.5V500C236.2,520.8,239.1,543,245,566.5L245,566.5z M901.1,212L688.5,424.6V500c0,51.8-18.5,96.2-55.4,133.1c-36.9,36.9-81.3,55.4-133.1,55.4c-21.6,0-43-3.7-64.2-11.2l-56.5,56.5c38.1,20,78.3,30,120.7,30c72.6,0,134.8-25.8,186.4-77.4c51.6-51.6,77.4-113.8,77.4-186.4v-75.4c0-10.2,3.7-19,11.2-26.5c7.5-7.5,16.3-11.2,26.5-11.2s19,3.7,26.5,11.2c7.5,7.5,11.2,16.3,11.2,26.5V500c0,86.8-29,162.3-86.9,226.4c-57.9,64.2-129.5,101-214.7,110.4v77.7h150.8c10.2,0,19,3.7,26.5,11.2c7.5,7.5,11.2,16.3,11.2,26.5c0,10.2-3.7,19-11.2,26.5c-7.5,7.5-16.3,11.2-26.5,11.2H311.5c-10.2,0-19-3.7-26.5-11.2c-7.5-7.5-11.2-16.3-11.2-26.5c0-10.2,3.7-19,11.2-26.5c7.5-7.5,16.3-11.2,26.5-11.2h150.8v-77.7c-49.1-5.1-95.2-21-138.4-47.7L174.3,938.8c-3.9,3.9-8.4,5.9-13.5,5.9c-5.1,0-9.6-2-13.5-5.9l-48.3-48.3C95,886.5,93,882,93,876.9c0-5.1,2-9.6,5.9-13.5l726.8-726.8c3.9-3.9,8.4-5.9,13.5-5.9c5.1,0,9.6,2,13.5,5.9l48.3,48.3c3.9,3.9,5.9,8.4,5.9,13.5C907,203.6,905,208.1,901.1,212L901.1,212z M677.3,134.3L311.5,500V198.5c0-51.8,18.5-96.2,55.4-133.1C403.8,28.5,448.2,10,500,10c40,0,76.3,11.6,108.7,34.7C641.1,67.9,663.9,97.8,677.3,134.3L677.3,134.3z"/></g>
</svg>